<?xml version="1.0" encoding="utf-8"?>
<!-- Generator: Adobe Illustrator 18.1.1, SVG Export Plug-In . SVG Version: 6.00 Build 0)  -->
<svg version="1.1" id="Layer_1" xmlns="http://www.w3.org/2000/svg" xmlns:xlink="http://www.w3.org/1999/xlink" x="0px" y="0px"
	 viewBox="0 0 945 560" enable-background="new 0 0 945 560" xml:space="preserve">
<path fill="#FFFFFF" d="M852,522H84c-6.6,0-12-5.4-12-12V84c0-6.6,5.4-12,12-12h768c6.6,0,12,5.4,12,12v426
	C864,516.6,858.6,522,852,522z"/>
<text transform="matrix(1 0 0 1 288 126)" fill="#337AB7" font-family="'Seravek'" font-size="52">Level Up Courses</text>
<path fill="#337AB7" stroke="#000000" stroke-miterlimit="10" d="M438,486H156c-6.6,0-12-5.4-12-12V165c0-6.6,5.4-12,12-12h282
	c6.6,0,12,5.4,12,12v309C450,480.6,444.6,486,438,486z"/>
<path fill="#337AB7" stroke="#000000" stroke-miterlimit="10" d="M780,414H489c-6.6,0-12-5.4-12-12V165c0-6.6,5.4-12,12-12h291
	c6.6,0,12,5.4,12,12v237C792,408.6,786.6,414,780,414z"/>
<text transform="matrix(0.8088 0 0 1 189 198.0005)" fill="#FFFFFF" font-family="'Seravek'" font-size="39.9999">Timed Sessions</text>
<text transform="matrix(0.8088 0 0 1 558 198.0001)" fill="#FFFFFF" font-family="'Seravek'" font-size="37.0922">Open Source</text>
<path fill="#FFFFFF" d="M402,450H192c-6.6,0-12-5.4-12-12V228c0-6.6,5.4-12,12-12h210c6.6,0,12,5.4,12,12v210
	C414,444.6,408.6,450,402,450z"/>
<path fill="#FFFFFF" d="M753,387H525c-6.6,0-12-5.4-12-12V228c0-6.6,5.4-12,12-12h228c6.6,0,12,5.4,12,12v147
	C765,381.6,759.6,387,753,387z"/>
<text transform="matrix(1 0 0 1 198 243)"><tspan x="0" y="0" font-family="'Seravek'" font-size="16">Our courses are offered</tspan><tspan x="0" y="19.2" font-family="'Seravek'" font-size="16">at any time for any student</tspan><tspan x="0" y="38.4" font-family="'Seravek'" font-size="16">however, to ensure consistent</tspan><tspan x="0" y="57.6" font-family="'Seravek'" font-size="16">and strong learning, once</tspan><tspan x="0" y="76.8" font-family="'Seravek'" font-size="16">enrolled, the course will be</tspan><tspan x="0" y="96" font-family="'Seravek'" font-size="16">tracked giving the student</tspan><tspan x="0" y="115.2" font-family="'Seravek'" font-size="16">ample time to complete their</tspan><tspan x="0" y="134.4" font-family="'Seravek'" font-size="16">course work and to stay </tspan><tspan x="0" y="153.6" font-family="'Seravek'" font-size="16">motivated throughout the </tspan><tspan x="0" y="172.8" font-family="'Seravek'" font-size="16">process.</tspan></text>
<text transform="matrix(1 0 0 1 540 243)"><tspan x="0" y="0" font-family="'Seravek'" font-size="18">Don’t see a course you </tspan><tspan x="0" y="21.6" font-family="'Seravek'" font-size="18">want to see offered?</tspan><tspan x="0" y="43.2" font-family="'Seravek'" font-size="18">Go ahead and choose the </tspan><tspan x="0" y="64.8" font-family="'Seravek'" font-size="18">suggest a course tab,</tspan><tspan x="0" y="86.4" font-family="'Seravek'" font-size="18">and a team of developers</tspan><tspan x="0" y="108" font-family="'Seravek'" font-size="18">will get started right away!</tspan></text>
</svg>
