<?xml version="1.0" encoding="utf-8"?>
<!-- Generator: Adobe Illustrator 18.1.1, SVG Export Plug-In . SVG Version: 6.00 Build 0)  -->
<svg version="1.1" id="Layer_1" xmlns="http://www.w3.org/2000/svg" xmlns:xlink="http://www.w3.org/1999/xlink" x="0px" y="0px"
	 viewBox="0 0 960 560" enable-background="new 0 0 960 560" xml:space="preserve">
<text transform="matrix(1 0 0 1 48.4193 88.742)" font-family="'MyriadPro-Regular'" font-size="72">Python</text>
<text transform="matrix(1 0 0 1 731.688 377.5264)" font-family="'MyriadPro-Regular'" font-size="30">C#</text>
<text transform="matrix(1 0 0 1 761.7957 466.7742)" font-family="'MyriadPro-Regular'" font-size="74">PHP</text>
<text transform="matrix(1 0 0 1 381.1505 75.3762)" font-family="'MyriadPro-Regular'" font-size="18">Haskell</text>
<text transform="matrix(1 0 0 1 14.4838 500.1075)" font-family="'MyriadPro-Regular'" font-size="138">Java</text>
<text transform="matrix(1 0 0 1 756.4197 88.7418)" font-family="'MyriadPro-Regular'" font-size="60">C++</text>
<text transform="matrix(1 0 0 1 669.3225 221.6131)" font-family="'MyriadPro-Regular'" font-size="56">Javascript</text>
<text transform="matrix(1 0 0 1 448.8924 524.0859)" font-family="'MyriadPro-Regular'" font-size="23">Clojure</text>
<text transform="matrix(1 0 0 1 673.6236 519.4624)" font-family="'MyriadPro-Regular'" font-size="20">Lisp</text>
<text transform="matrix(1 0 0 1 73.6236 239.8924)" font-family="'MyriadPro-Regular'" font-size="79">C</text>
<text transform="matrix(1 0 0 1 157.4946 359.2473)" font-family="'MyriadPro-Regular'" font-size="41">SQL</text>
<text transform="matrix(1 0 0 1 773.6236 301.1828)" font-family="'MyriadPro-Regular'" font-size="29">Scala</text>
</svg>
