<?xml version="1.0" encoding="utf-8"?>
<!-- Generator: Adobe Illustrator 18.1.1, SVG Export Plug-In . SVG Version: 6.00 Build 0)  -->
<svg version="1.1" id="Layer_1" xmlns="http://www.w3.org/2000/svg" xmlns:xlink="http://www.w3.org/1999/xlink" x="0px" y="0px"
	 viewBox="0 0 300 300" enable-background="new 0 0 300 300" xml:space="preserve">
<pattern  y="300" width="108.3" height="109.6" patternUnits="userSpaceOnUse" id="Jive" viewBox="47.6 -219.3 108.3 109.6" overflow="visible">
	<g>
		<polygon fill="none" points="47.6,-219.3 155.9,-219.3 155.9,-109.6 47.6,-109.6 		"/>
		<g>
			<path fill="#00427E" d="M135-74.9c0-0.1,0.1-0.2,0.2-0.2c12.9-0.1,24.8-3.3,34-11.5c-8,5.6-22.9,7.5-31.5,3.6
				c-0.1,0-0.2-0.2-0.1-0.3c0-0.1,0.1-0.2,0.3-0.2c10.7,0.3,19.3-3,26-9c-6.9-0.4-12.6-4.7-12.6-9.8c0-0.1,0.1-0.2,0.2-0.2
				c0.1,0,0.2,0,0.3,0.1c1.1,2.5,4.7,3.8,8.6,2.9c4.2-1,7-4.2,6.3-7.2c-0.5-2-2.4-3.4-5-3.8c-0.1,0-0.2-0.1-0.2-0.3
				c0-0.1,0.1-0.2,0.2-0.2c1.1-0.1,2.2-0.1,3.3,0c6.5,0.6,11.5,4.6,11.9,9.2c4.7-0.5,8.9-3.2,10.4-6.8c0-0.1,0.2-0.2,0.3-0.2
				c0.1,0,0.2,0.1,0.2,0.2c0.4,4.8-1.3,7.8-5,10.9c5.4-2.1,11.4-2.2,17.3,0.5c0.1,0,0.2,0.2,0.1,0.3c0,0.1-0.1,0.2-0.2,0.2
				c-4.9,0.2-8.4,1.8-11.7,5.1c18.3-5.1,33.1,6.2,28,23.1c0,0.1-0.1,0.2-0.3,0.2c-0.1,0-0.2-0.1-0.2-0.2
				c-0.9-9.7-7.7-16.1-17.9-17.1c5.4,2.1,11,7,11.6,15.5c0,0.1-0.1,0.2-0.2,0.3c-0.1,0-0.2,0-0.3-0.1c-2.8-6.2-8.3-9.3-14.2-9.8
				c6.3,2.6,10.4,8.6,11.6,16.4c0,0.1-0.1,0.2-0.2,0.3c-0.1,0-0.2,0-0.3-0.1c-3.9-7.6-12.2-12.8-22.4-8.8
				c-10.6,4.1-15.3,16.4-16.3,25c0,0.1-0.1,0.2-0.2,0.2c-0.1,0-0.2-0.1-0.3-0.2c-3.7-15.7,3.6-31.9,16.6-38.8
				c-7.1,2-13.4,6.3-17,13.4c-8.3,1-14,3.9-16.9,9.2c-0.1,0.1-0.2,0.2-0.3,0.1c-0.1,0-0.2-0.1-0.2-0.3c0.2-2.1,0.9-6.3,4.1-8.3
				c-7,0-12.5-0.9-17.8-3C135.1-74.7,135-74.8,135-74.9z M164.5-21.5c-0.1-0.1-0.2-0.1-0.3,0c-0.1,0.1-0.1,0.2,0,0.3
				c1.6,2.8,0.1,6.8-3.1,6.8c-5.7,0-8.5-10.8-7.6-20.6c2.2,5.8,4,8.1,7.3,10.8c0.1,0.1,0.2,0.1,0.3,0c0.1-0.1,0.1-0.2,0.1-0.3
				c-4.9-9.1-5.9-16.1-5.9-24.1c1.5,6,3.2,9.3,8.1,14.4c0.1,0.1,0.2,0.1,0.3,0c0.1-0.1,0.1-0.2,0.1-0.3c-5.3-11.6-4.9-24.4-0.9-34.3
				c0-0.1,0-0.2-0.1-0.3c-0.1-0.1-0.2-0.1-0.3,0c-5.2,2.6-8.3,4.2-12.8,10.4c1.4,7.4,0.2,11-3.2,17.2c3.9-9.9,1.8-23.9-8.2-29.6
				c-0.1-0.1-0.2,0-0.3,0.1c-0.1,0.1-0.1,0.2,0,0.3c3.8,4,6.5,10.6,4.2,17.9c1.5-10.4-7.6-19.1-17.8-19.1c-9.6,0-16.2,7.5-15.6,14.9
				c0.5,7.4,5.4,11,9.7,12.5c0.1,0,0.2,0,0.3-0.1c0.1-0.1,0-0.2,0-0.3c-5.6-5.7-6.4-16.5,3.6-19.8c-5.9,5.1-3.7,16.8,5.7,17.7
				c0.1,0,0.2-0.1,0.3-0.2c0-0.1,0-0.2-0.1-0.3c-2-1.3-3.7-3.8-3.7-6.6c0-4.7,3.4-6.5,5.7-6.5c3.4,0,6.3,3.3,6.3,8.2
				c0,5.8-5.3,10.7-12,11.4c-6.6,0.7-12.8-2.2-15.8-6.5c-0.1-0.1-0.2-0.1-0.3-0.1c-0.1,0.1-0.2,0.2-0.1,0.3
				c3,11.7,16.8,16.9,26.9,9.5c-6.6,7.5-17,7.6-25.7-0.1c-0.1-0.1-0.2-0.1-0.3,0c-0.1,0.1-0.1,0.2-0.1,0.3
				c2.7,5.4,9.3,11.8,18.6,10.9c8.6-0.9,13.5-9,14.5-15.7c0.6,8.5-1.4,14.5-8.8,20.1c-0.1,0.1-0.1,0.2-0.1,0.3
				c0.1,0.1,0.2,0.2,0.3,0.1c6.8-2,12.2-5.4,15-12.5c0,6.2-2.1,12.4-7.5,16.5c-0.1,0.1-0.1,0.2-0.1,0.3s0.2,0.2,0.3,0.1
				c3.5-1,6.2-2.5,8.1-5.2c1.3,11.1,6.5,17.7,12.5,17.7c4.1,0,7.2-3,7.2-7.9C169.3-15.3,167.8-19.3,164.5-21.5z M263.7-113.1
				c-3.2-3.9-9.5-5.4-16.4-4c0.5-4.3-0.3-8.8-1.6-11.5c-0.1-0.1-0.2-0.2-0.3-0.1c-0.1,0-0.2,0.1-0.2,0.3c0.4,8.8-4.6,15.8-13.4,18.9
				c6.9-4.8,8.9-14.2,5.6-19.1c-0.1-0.1-0.2-0.1-0.3-0.1c-0.1,0-0.2,0.2-0.2,0.3c0.4,2.1-0.6,4.7-2.7,6.7c-2.9,2.8-6.8,3.5-8.8,1.4
				c-2-2-1.2-5.9,1.7-8.8c1.1-1,2.3-1.8,3.4-2.2c0.1,0,0.2-0.2,0.2-0.3c0-0.1-0.1-0.2-0.2-0.2c-6.4-0.6-10.8,3.3-13.5,7.9
				c-2.8,4.7-7.6,8.4-13.2,7.7c-0.1,0-0.2,0.1-0.3,0.2c0,0.1,0,0.2,0.1,0.3c2.8,1.7,5.9,2.4,9.9,1.1c-5.8,4.9-14,7.7-21.8,5.2
				c-0.1,0-0.2,0-0.3,0.1c-0.1,0.1-0.1,0.2,0,0.3c5.9,6.6,17.7,6.7,25.1,1.4c-3,4.3-7.1,7.5-14.3,8.5c-0.1,0-0.2,0.1-0.2,0.2
				c0,0.1,0.1,0.2,0.2,0.3c8.3,3.1,16.6,0,23.4-8.2c-3,6.4-7.9,11.5-14.8,14c-0.1,0-0.2,0.2-0.2,0.3c0,0.1,0.1,0.2,0.2,0.2
				c3.9,0.1,7.5-0.9,12.3-3.6c-3.5,5.7-2.7,15.6,2.4,22.3c0.1,0.1,0.2,0.1,0.3,0.1c0.1,0,0.2-0.2,0.1-0.3
				c-1.2-7.2,1.3-15.3,5.6-19.6c-2.2,7.6,0,14.6,5.9,19.6c0.1,0.1,0.2,0.1,0.3,0c0.1,0,0.1-0.1,0.2-0.2c1.2-9.4,11.8-19,20.6-19.8
				c0.1,0,0.2-0.1,0.2-0.2c0-0.1-0.1-0.2-0.2-0.3c-4.3-1-8.7-0.5-12.4,1c2.7-2.9,5.9-5.1,9.6-6.2c0.1,0,0.2-0.2,0.2-0.3
				c0-0.1-0.1-0.2-0.2-0.2c-4.5-0.3-8.9,1-12.7,3.5c4.4-6.6,11-11.5,19.4-13.5c0.1,0,0.2-0.1,0.2-0.3c0-0.1-0.1-0.2-0.2-0.2
				c-11.9-1.3-21.7,3.3-28.2,11.9c1.6-4.9,6.4-9.8,12.9-12.6c5.8-2.5,11.9-2.9,16.4-1.5c0.1,0,0.2,0,0.3-0.1
				C263.8-112.9,263.8-113,263.7-113.1z M210.8-37.5c4.8-10.5,4.5-18.7,0.6-29.1c0-0.1-0.2-0.2-0.3-0.2c-0.1,0-0.2,0.1-0.2,0.3
				c0.6,12.6-2.8,21.7-10.3,27.8c8.2-9.9,4.4-29.6-8.8-29.6c-9.6,0-17.5,8-19.5,17.5c0,0.1,0,0.2,0.2,0.3c0.1,0,0.2,0,0.3-0.1
				c2.8-4.8,7.4-7.9,12.5-7.9c8.1,0,10.5,6.5,10.5,11c0,6.2-4.9,11.3-8.7,11.3c-3.4,0-5-2.8-5-4.9c0-3.9,3-7.2,6.4-8.2
				c0.1,0,0.2-0.2,0.2-0.3c0-0.1-0.1-0.2-0.2-0.2c-4.1,0-7.6,1.9-9.6,5.6c-0.3-2.9-0.3-4.7,0.6-7.7c0-0.1,0-0.2-0.1-0.3
				c-0.1-0.1-0.2,0-0.3,0.1c-7.4,9.4-3.8,25.6,2,32.4c-5.5-4-10.4-12.6-10.3-24.4c0-0.1-0.1-0.2-0.2-0.2c-0.1,0-0.2,0-0.3,0.2
				c-4.1,10.3-1.9,29.2,9.3,39.9c-2.9,0.4-5.9,0.3-9.1-0.7c-0.1,0-0.2,0-0.3,0.1c-0.1,0.1,0,0.2,0.1,0.3c4.1,3.5,9.8,4.5,15.3,4.5
				c-4.7-5.5-3.1-16.6,4.4-16.6c5.3,0,7.8,8.3,3.6,12.8c-0.1,0.1-0.1,0.2,0,0.3c0.1,0.1,0.2,0.1,0.3,0.1c4.8-1.7,9.9-5.8,9.9-11
				c0-5-4.8-9.4-11.8-9.1c8.8-2.5,18.1,0.3,22.9,6.3c0.1,0.1,0.2,0.1,0.3,0.1c0.1-0.1,0.2-0.2,0.1-0.3c-2.8-10.7-12-15.2-23.4-13.7
				c9.3-3.8,23.2-0.5,29.4,7.3c0.1,0.1,0.2,0.1,0.3,0.1c0.1-0.1,0.2-0.2,0.1-0.3C220.1-30.6,216.6-35.6,210.8-37.5z"/>
			<path opacity="0.4" fill="#9DDCF9" d="M237.2-56.8c0,0.1-0.1,0.2-0.2,0.2c-12.9,0.1-24.8,3.3-34,11.5c8-5.6,22.9-7.5,31.5-3.6
				c0.1,0.1,0.2,0.2,0.1,0.3c0,0.1-0.1,0.2-0.3,0.2c-10.7-0.3-19.3,3-26,9c6.9,0.4,12.6,4.7,12.6,9.8c0,0.1-0.1,0.2-0.2,0.2
				c-0.1,0-0.2,0-0.3-0.1c-1.1-2.5-4.7-3.8-8.6-2.9c-4.2,1-7,4.2-6.3,7.2c0.5,2,2.4,3.4,5,3.8c0.1,0,0.2,0.1,0.2,0.3
				c0,0.1-0.1,0.2-0.2,0.2c-1.1,0.1-2.2,0.1-3.3,0c-6.5-0.6-11.5-4.6-11.9-9.2c-4.7,0.5-8.9,3.2-10.4,6.8c0,0.1-0.2,0.2-0.3,0.2
				c-0.1,0-0.2-0.1-0.2-0.2c-0.4-4.8,1.3-7.8,5-10.9c-5.4,2.1-11.4,2.2-17.3-0.5c-0.1-0.1-0.2-0.2-0.1-0.3c0-0.1,0.1-0.2,0.2-0.2
				c4.9-0.2,8.4-1.8,11.7-5.1c-18.3,5.1-33.1-6.2-28-23.1c0-0.1,0.1-0.2,0.3-0.2s0.2,0.1,0.2,0.2c0.9,9.7,7.7,16.1,17.9,17.1
				c-5.4-2.1-11-7-11.6-15.5c0-0.1,0.1-0.2,0.2-0.3c0.1,0,0.2,0,0.3,0.1c2.8,6.2,8.3,9.3,14.2,9.8c-6.3-2.6-10.4-8.6-11.6-16.4
				c0-0.1,0.1-0.2,0.2-0.3c0.1,0,0.2,0,0.3,0.1c3.9,7.6,12.2,12.8,22.4,8.8c10.6-4.1,15.3-16.4,16.3-25c0-0.1,0.1-0.2,0.2-0.2
				c0.1,0,0.2,0.1,0.3,0.2c3.7,15.7-3.6,31.9-16.6,38.8c7.1-2,13.4-6.3,17-13.4c8.3-1,14-3.9,16.9-9.2c0.1-0.1,0.2-0.2,0.3-0.1
				c0.1,0,0.2,0.1,0.2,0.3c-0.2,2.1-0.9,6.3-4.1,8.3c7,0,12.5,0.9,17.8,3C237.2-57,237.2-56.9,237.2-56.8z M207.7-110.3
				c0.1,0.1,0.2,0.1,0.3,0c0.1-0.1,0.1-0.2,0-0.3c-1.6-2.8-0.1-6.8,3.1-6.8c5.7,0,8.5,10.8,7.6,20.6c-2.2-5.8-4-8.1-7.3-10.8
				c-0.1-0.1-0.2-0.1-0.3,0c-0.1,0.1-0.1,0.2-0.1,0.3c4.9,9.1,5.9,16.1,5.9,24.1c-1.5-6-3.2-9.3-8.1-14.4c-0.1-0.1-0.2-0.1-0.3,0
				c-0.1,0.1-0.1,0.2-0.1,0.3c5.3,11.6,4.9,24.4,0.9,34.3c0,0.1,0,0.2,0.1,0.3c0.1,0.1,0.2,0.1,0.3,0c5.2-2.6,8.3-4.2,12.8-10.4
				c-1.4-7.4-0.2-11,3.2-17.2c-3.9,9.9-1.8,23.9,8.2,29.6c0.1,0.1,0.2,0,0.3-0.1c0.1-0.1,0.1-0.2,0-0.3c-3.8-4-6.5-10.6-4.2-17.9
				c-1.5,10.4,7.6,19.1,17.8,19.1c9.6,0,16.2-7.5,15.6-14.9c-0.5-7.4-5.4-11-9.7-12.5c-0.1,0-0.2,0-0.3,0.1c-0.1,0.1-0.1,0.2,0,0.3
				c5.6,5.7,6.4,16.5-3.6,19.8c5.9-5.1,3.7-16.8-5.7-17.7c-0.1,0-0.2,0.1-0.3,0.2c0,0.1,0,0.2,0.1,0.3c2,1.3,3.7,3.8,3.7,6.6
				c0,4.7-3.4,6.5-5.7,6.5c-3.4,0-6.3-3.3-6.3-8.2c0-5.8,5.3-10.7,12-11.4c6.6-0.7,12.8,2.2,15.8,6.5c0.1,0.1,0.2,0.1,0.3,0.1
				c0.1-0.1,0.2-0.2,0.1-0.3c-3-11.7-16.8-16.9-26.9-9.5c6.6-7.5,17-7.6,25.7,0.1c0.1,0.1,0.2,0.1,0.3,0c0.1-0.1,0.1-0.2,0.1-0.3
				c-2.7-5.4-9.3-11.8-18.6-10.9c-8.6,0.9-13.5,9-14.5,15.7c-0.6-8.5,1.4-14.5,8.8-20.1c0.1-0.1,0.1-0.2,0.1-0.3
				c-0.1-0.1-0.2-0.2-0.3-0.1c-6.8,2-12.2,5.4-15,12.5c0-6.2,2.1-12.4,7.5-16.5c0.1-0.1,0.1-0.2,0.1-0.3c-0.1-0.1-0.2-0.2-0.3-0.1
				c-3.5,1-6.2,2.5-8.1,5.2c-1.3-11.1-6.5-17.7-12.5-17.7c-4.1,0-7.2,3-7.2,7.9C202.9-116.5,204.4-112.5,207.7-110.3z M108.5-18.7
				c3.2,3.9,9.5,5.4,16.4,4c-0.5,4.3,0.3,8.8,1.6,11.5c0.1,0.1,0.2,0.2,0.3,0.1s0.2-0.1,0.2-0.3c-0.4-8.8,4.6-15.8,13.4-18.9
				c-6.9,4.8-8.9,14.2-5.6,19.1c0.1,0.1,0.2,0.1,0.3,0.1c0.1,0,0.2-0.2,0.2-0.3c-0.4-2.1,0.6-4.7,2.7-6.7c2.9-2.8,6.8-3.5,8.8-1.4
				c2,2,1.2,5.9-1.7,8.8c-1.1,1-2.3,1.8-3.4,2.2c-0.1,0-0.2,0.2-0.2,0.3c0,0.1,0.1,0.2,0.2,0.2c6.4,0.6,10.8-3.3,13.5-7.9
				c2.8-4.7,7.6-8.4,13.2-7.7c0.1,0,0.2-0.1,0.3-0.2c0-0.1,0-0.2-0.1-0.3c-2.8-1.7-5.9-2.4-9.9-1.1c5.8-4.9,14-7.7,21.8-5.2
				c0.1,0,0.2,0,0.3-0.1c0.1-0.1,0.1-0.2,0-0.3c-5.9-6.6-17.7-6.7-25.1-1.4c3-4.3,7.1-7.5,14.3-8.5c0.1,0,0.2-0.1,0.2-0.2
				c0-0.1-0.1-0.2-0.2-0.3c-8.3-3.1-16.6,0-23.4,8.2c3-6.4,7.9-11.5,14.8-14c0.1,0,0.2-0.2,0.2-0.3c0-0.1-0.1-0.2-0.2-0.2
				c-3.9-0.1-7.5,0.9-12.3,3.6c3.5-5.7,2.7-15.6-2.4-22.3c-0.1-0.1-0.2-0.1-0.3-0.1c-0.1,0-0.2,0.2-0.1,0.3
				c1.2,7.2-1.3,15.3-5.6,19.6c2.2-7.6,0-14.6-5.9-19.6c-0.1-0.1-0.2-0.1-0.3,0c-0.1,0-0.1,0.1-0.2,0.2c-1.2,9.4-11.8,19-20.6,19.8
				c-0.1,0-0.2,0.1-0.2,0.2c0,0.1,0.1,0.2,0.2,0.3c4.3,1,8.7,0.5,12.4-1c-2.7,2.9-5.9,5.1-9.6,6.2c-0.1,0-0.2,0.2-0.2,0.3
				c0,0.1,0.1,0.2,0.2,0.2c4.5,0.3,8.9-1,12.7-3.5c-4.4,6.6-11,11.5-19.4,13.5c-0.1,0-0.2,0.1-0.2,0.3c0,0.1,0.1,0.2,0.2,0.2
				c11.9,1.3,21.7-3.3,28.2-11.9c-1.6,4.9-6.4,9.8-12.9,12.6c-5.8,2.5-11.8,2.9-16.4,1.5c-0.1,0-0.2,0-0.3,0.1
				C108.4-18.9,108.4-18.7,108.5-18.7z M161.4-94.2c-4.8,10.5-4.5,18.7-0.6,29.1c0,0.1,0.2,0.2,0.3,0.2c0.1,0,0.2-0.1,0.2-0.3
				c-0.6-12.6,2.8-21.7,10.3-27.8c-8.2,9.9-4.4,29.6,8.8,29.6c9.6,0,17.5-8,19.5-17.5c0-0.1,0-0.2-0.2-0.3c-0.1,0-0.2,0-0.3,0.1
				c-2.8,4.8-7.4,7.9-12.5,7.9c-8.1,0-10.5-6.5-10.5-11c0-6.2,4.9-11.3,8.7-11.3c3.4,0,5,2.8,5,4.9c0,3.9-3,7.2-6.4,8.2
				c-0.1,0-0.2,0.2-0.2,0.3c0,0.1,0.1,0.2,0.2,0.2c4.1,0,7.6-1.9,9.6-5.6c0.3,2.9,0.3,4.7-0.6,7.7c0,0.1,0,0.2,0.1,0.3
				c0.1,0.1,0.2,0,0.3-0.1c7.4-9.4,3.8-25.6-2-32.4c5.5,4,10.4,12.6,10.3,24.4c0,0.1,0.1,0.2,0.2,0.2c0.1,0,0.2,0,0.3-0.2
				c4.1-10.3,1.9-29.2-9.3-39.9c2.9-0.4,5.9-0.3,9.1,0.7c0.1,0,0.2,0,0.3-0.1c0.1-0.1,0-0.2-0.1-0.3c-4.1-3.5-9.8-4.5-15.3-4.5
				c4.7,5.5,3.1,16.6-4.4,16.6c-5.3,0-7.8-8.3-3.6-12.8c0.1-0.1,0.1-0.2,0-0.3c-0.1-0.1-0.2-0.1-0.3-0.1c-4.8,1.7-9.9,5.8-9.9,11
				c0,5,4.8,9.4,11.8,9.1c-8.8,2.5-18.1-0.3-22.9-6.3c-0.1-0.1-0.2-0.1-0.3-0.1c-0.1,0.1-0.2,0.2-0.1,0.3
				c2.8,10.7,12,15.2,23.4,13.7c-9.3,3.8-23.2,0.5-29.4-7.3c-0.1-0.1-0.2-0.1-0.3-0.1c-0.1,0-0.2,0.2-0.1,0.3
				C152.2-101.1,155.7-96.2,161.4-94.2z"/>
		</g>
		<g>
			<path fill="#00427E" d="M26.7-74.9c0-0.1,0.1-0.2,0.2-0.2c12.9-0.1,24.8-3.3,34-11.5c-8,5.6-22.9,7.5-31.5,3.6
				c-0.1,0-0.2-0.2-0.1-0.3c0-0.1,0.1-0.2,0.3-0.2c10.7,0.3,19.3-3,26-9c-6.9-0.4-12.6-4.7-12.6-9.8c0-0.1,0.1-0.2,0.2-0.2
				c0.1,0,0.2,0,0.3,0.1c1.1,2.5,4.7,3.8,8.6,2.9c4.2-1,7-4.2,6.3-7.2c-0.5-2-2.4-3.4-5-3.8c-0.1,0-0.2-0.1-0.2-0.3
				c0-0.1,0.1-0.2,0.2-0.2c1.1-0.1,2.2-0.1,3.3,0c6.5,0.6,11.5,4.6,11.9,9.2c4.7-0.5,8.9-3.2,10.4-6.8c0-0.1,0.2-0.2,0.3-0.2
				c0.1,0,0.2,0.1,0.2,0.2c0.4,4.8-1.3,7.8-5,10.9c5.4-2.1,11.4-2.2,17.3,0.5c0.1,0,0.2,0.2,0.1,0.3c0,0.1-0.1,0.2-0.2,0.2
				c-4.9,0.2-8.4,1.8-11.7,5.1c18.3-5.1,33.1,6.2,28,23.1c0,0.1-0.1,0.2-0.3,0.2c-0.1,0-0.2-0.1-0.2-0.2
				c-0.9-9.7-7.7-16.1-17.9-17.1c5.4,2.1,11,7,11.6,15.5c0,0.1-0.1,0.2-0.2,0.3c-0.1,0-0.2,0-0.3-0.1c-2.8-6.2-8.3-9.3-14.2-9.8
				c6.3,2.6,10.4,8.6,11.6,16.4c0,0.1-0.1,0.2-0.2,0.3c-0.1,0-0.2,0-0.3-0.1c-3.9-7.6-12.2-12.8-22.4-8.8C64.5-68,59.8-55.7,58.8-47
				c0,0.1-0.1,0.2-0.2,0.2c-0.1,0-0.2-0.1-0.3-0.2c-3.7-15.7,3.6-31.9,16.6-38.8c-7.1,2-13.4,6.3-17,13.4c-8.3,1-14,3.9-16.9,9.2
				c-0.1,0.1-0.2,0.2-0.3,0.1c-0.1,0-0.2-0.1-0.2-0.3c0.2-2.1,0.9-6.3,4.1-8.3c-7,0-12.5-0.9-17.8-3C26.7-74.7,26.7-74.8,26.7-74.9z
				 M56.2-21.5c-0.1-0.1-0.2-0.1-0.3,0c-0.1,0.1-0.1,0.2,0,0.3c1.6,2.8,0.1,6.8-3.1,6.8c-5.7,0-8.5-10.8-7.6-20.6
				c2.2,5.8,4,8.1,7.3,10.8c0.1,0.1,0.2,0.1,0.3,0c0.1-0.1,0.1-0.2,0.1-0.3C48.1-33.5,47-40.5,47-48.5c1.5,6,3.2,9.3,8.1,14.4
				c0.1,0.1,0.2,0.1,0.3,0c0.1-0.1,0.1-0.2,0.1-0.3c-5.3-11.6-4.9-24.4-0.9-34.3c0-0.1,0-0.2-0.1-0.3c-0.1-0.1-0.2-0.1-0.3,0
				c-5.2,2.6-8.3,4.2-12.8,10.4c1.4,7.4,0.2,11-3.2,17.2c3.9-9.9,1.8-23.9-8.2-29.6c-0.1-0.1-0.2,0-0.3,0.1c-0.1,0.1-0.1,0.2,0,0.3
				c3.8,4,6.5,10.6,4.2,17.9c1.5-10.4-7.6-19.1-17.8-19.1c-9.6,0-16.2,7.5-15.6,14.9c0.5,7.4,5.4,11,9.7,12.5c0.1,0,0.2,0,0.3-0.1
				c0.1-0.1,0-0.2,0-0.3c-5.6-5.7-6.4-16.5,3.6-19.8c-5.9,5.1-3.7,16.8,5.7,17.7c0.1,0,0.2-0.1,0.3-0.2c0-0.1,0-0.2-0.1-0.3
				c-2-1.3-3.7-3.8-3.7-6.6c0-4.7,3.4-6.5,5.7-6.5c3.4,0,6.3,3.3,6.3,8.2c0,5.8-5.3,10.7-12,11.4C9.6-40,3.4-42.9,0.5-47.2
				c-0.1-0.1-0.2-0.1-0.3-0.1C0-47.3,0-47.1,0-47c3,11.7,16.8,16.9,26.9,9.5c-6.6,7.5-17,7.6-25.7-0.1c-0.1-0.1-0.2-0.1-0.3,0
				c-0.1,0.1-0.1,0.2-0.1,0.3c2.7,5.4,9.3,11.8,18.6,10.9c8.6-0.9,13.5-9,14.5-15.7c0.6,8.5-1.4,14.5-8.8,20.1
				c-0.1,0.1-0.1,0.2-0.1,0.3c0.1,0.1,0.2,0.2,0.3,0.1c6.8-2,12.2-5.4,15-12.5c0,6.2-2.1,12.4-7.5,16.5c-0.1,0.1-0.1,0.2-0.1,0.3
				c0.1,0.1,0.2,0.2,0.3,0.1c3.5-1,6.2-2.5,8.1-5.2c1.3,11.1,6.5,17.7,12.5,17.7c4.1,0,7.2-3,7.2-7.9C61-15.3,59.5-19.3,56.2-21.5z
				 M155.4-113.1c-3.2-3.9-9.5-5.4-16.4-4c0.5-4.3-0.3-8.8-1.6-11.5c-0.1-0.1-0.2-0.2-0.3-0.1c-0.1,0-0.2,0.1-0.2,0.3
				c0.4,8.8-4.6,15.8-13.4,18.9c6.9-4.8,8.9-14.2,5.6-19.1c-0.1-0.1-0.2-0.1-0.3-0.1c-0.1,0-0.2,0.2-0.2,0.3
				c0.4,2.1-0.6,4.7-2.7,6.7c-2.9,2.8-6.8,3.5-8.8,1.4c-2-2-1.2-5.9,1.7-8.8c1.1-1,2.3-1.8,3.4-2.2c0.1,0,0.2-0.2,0.2-0.3
				c0-0.1-0.1-0.2-0.2-0.2c-6.4-0.6-10.8,3.3-13.5,7.9c-2.8,4.7-7.6,8.4-13.2,7.7c-0.1,0-0.2,0.1-0.3,0.2c0,0.1,0,0.2,0.1,0.3
				c2.8,1.7,5.9,2.4,9.9,1.1c-5.8,4.9-14,7.7-21.8,5.2c-0.1,0-0.2,0-0.3,0.1c-0.1,0.1-0.1,0.2,0,0.3c5.9,6.6,17.7,6.7,25.1,1.4
				c-3,4.3-7.1,7.5-14.3,8.5c-0.1,0-0.2,0.1-0.2,0.2c0,0.1,0.1,0.2,0.2,0.3c8.3,3.1,16.6,0,23.4-8.2c-3,6.4-7.9,11.5-14.8,14
				c-0.1,0-0.2,0.2-0.2,0.3c0,0.1,0.1,0.2,0.2,0.2c3.9,0.1,7.5-0.9,12.3-3.6c-3.5,5.7-2.7,15.6,2.4,22.3c0.1,0.1,0.2,0.1,0.3,0.1
				c0.1,0,0.2-0.2,0.1-0.3c-1.2-7.2,1.3-15.3,5.6-19.6c-2.2,7.6,0,14.6,5.9,19.6c0.1,0.1,0.2,0.1,0.3,0c0.1,0,0.1-0.1,0.2-0.2
				c1.2-9.4,11.8-19,20.6-19.8c0.1,0,0.2-0.1,0.2-0.2c0-0.1-0.1-0.2-0.2-0.3c-4.3-1-8.7-0.5-12.4,1c2.7-2.9,5.9-5.1,9.6-6.2
				c0.1,0,0.2-0.2,0.2-0.3c0-0.1-0.1-0.2-0.2-0.2c-4.5-0.3-8.9,1-12.7,3.5c4.4-6.6,11-11.5,19.4-13.5c0.1,0,0.2-0.1,0.2-0.3
				c0-0.1-0.1-0.2-0.2-0.2c-11.9-1.3-21.7,3.3-28.2,11.9c1.6-4.9,6.4-9.8,12.9-12.6c5.8-2.5,11.8-2.9,16.4-1.5c0.1,0,0.2,0,0.3-0.1
				C155.5-112.9,155.5-113,155.4-113.1z M102.5-37.5c4.8-10.5,4.5-18.7,0.6-29.1c0-0.1-0.2-0.2-0.3-0.2c-0.1,0-0.2,0.1-0.2,0.3
				c0.6,12.6-2.8,21.7-10.3,27.8c8.2-9.9,4.4-29.6-8.8-29.6c-9.6,0-17.5,8-19.5,17.5c0,0.1,0,0.2,0.2,0.3c0.1,0,0.2,0,0.3-0.1
				c2.8-4.8,7.4-7.9,12.5-7.9c8.1,0,10.5,6.5,10.5,11c0,6.2-4.9,11.3-8.7,11.3c-3.4,0-5-2.8-5-4.9c0-3.9,3-7.2,6.4-8.2
				c0.1,0,0.2-0.2,0.2-0.3c0-0.1-0.1-0.2-0.2-0.2c-4.1,0-7.6,1.9-9.6,5.6c-0.3-2.9-0.3-4.7,0.6-7.7c0-0.1,0-0.2-0.1-0.3
				c-0.1-0.1-0.2,0-0.3,0.1c-7.4,9.4-3.8,25.6,2,32.4c-5.5-4-10.4-12.6-10.3-24.4c0-0.1-0.1-0.2-0.2-0.2c-0.1,0-0.2,0-0.3,0.2
				c-4.1,10.3-1.9,29.2,9.3,39.9c-2.9,0.4-5.9,0.3-9.1-0.7c-0.1,0-0.2,0-0.3,0.1c-0.1,0.1,0,0.2,0.1,0.3C65.8-1.1,71.5,0,77,0
				c-4.7-5.5-3.1-16.6,4.4-16.6c5.3,0,7.8,8.3,3.6,12.8c-0.1,0.1-0.1,0.2,0,0.3c0.1,0.1,0.2,0.1,0.3,0.1c4.8-1.7,9.9-5.8,9.9-11
				c0-5-4.8-9.4-11.8-9.1c8.8-2.5,18.1,0.3,22.9,6.3c0.1,0.1,0.2,0.1,0.3,0.1c0.1-0.1,0.2-0.2,0.1-0.3c-2.8-10.7-12-15.2-23.4-13.7
				c9.3-3.8,23.2-0.5,29.4,7.3c0.1,0.1,0.2,0.1,0.3,0.1c0.1-0.1,0.2-0.2,0.1-0.3C111.8-30.6,108.3-35.6,102.5-37.5z"/>
			<path opacity="0.4" fill="#9DDCF9" d="M128.9-56.8c0,0.1-0.1,0.2-0.2,0.2c-12.9,0.1-24.8,3.3-34,11.5c8-5.6,22.9-7.5,31.5-3.6
				c0.1,0.1,0.2,0.2,0.1,0.3c0,0.1-0.1,0.2-0.3,0.2c-10.7-0.3-19.3,3-26,9c6.9,0.4,12.6,4.7,12.6,9.8c0,0.1-0.1,0.2-0.2,0.2
				c-0.1,0-0.2,0-0.3-0.1c-1.1-2.5-4.7-3.8-8.6-2.9c-4.2,1-7,4.2-6.3,7.2c0.5,2,2.4,3.4,5,3.8c0.1,0,0.2,0.1,0.2,0.3
				c0,0.1-0.1,0.2-0.2,0.2c-1.1,0.1-2.2,0.1-3.3,0c-6.5-0.6-11.5-4.6-11.9-9.2c-4.7,0.5-8.9,3.2-10.4,6.8c0,0.1-0.2,0.2-0.3,0.2
				c-0.1,0-0.2-0.1-0.2-0.2c-0.4-4.8,1.3-7.8,5-10.9c-5.4,2.1-11.4,2.2-17.3-0.5c-0.1-0.1-0.2-0.2-0.1-0.3c0-0.1,0.1-0.2,0.2-0.2
				c4.9-0.2,8.4-1.8,11.7-5.1c-18.3,5.1-33.1-6.2-28-23.1c0-0.1,0.1-0.2,0.3-0.2c0.1,0,0.2,0.1,0.2,0.2C49.1-53.4,55.9-47,66-46.1
				c-5.4-2.1-11-7-11.6-15.5c0-0.1,0.1-0.2,0.2-0.3c0.1,0,0.2,0,0.3,0.1c2.8,6.2,8.3,9.3,14.2,9.8c-6.3-2.6-10.4-8.6-11.6-16.4
				c0-0.1,0.1-0.2,0.2-0.3c0.1,0,0.2,0,0.3,0.1c3.9,7.6,12.2,12.8,22.4,8.8c10.6-4.1,15.3-16.4,16.3-25c0-0.1,0.1-0.2,0.2-0.2
				c0.1,0,0.2,0.1,0.3,0.2c3.7,15.7-3.6,31.9-16.6,38.8c7.1-2,13.4-6.3,17-13.4c8.3-1,14-3.9,16.9-9.2c0.1-0.1,0.2-0.2,0.3-0.1
				c0.1,0,0.2,0.1,0.2,0.3c-0.2,2.1-0.9,6.3-4.1,8.3c7,0,12.5,0.9,17.8,3C128.8-57,128.9-56.9,128.9-56.8z M99.4-110.3
				c0.1,0.1,0.2,0.1,0.3,0c0.1-0.1,0.1-0.2,0-0.3c-1.6-2.8-0.1-6.8,3.1-6.8c5.7,0,8.5,10.8,7.6,20.6c-2.2-5.8-4-8.1-7.3-10.8
				c-0.1-0.1-0.2-0.1-0.3,0c-0.1,0.1-0.1,0.2-0.1,0.3c4.9,9.1,5.9,16.1,5.9,24.1c-1.5-6-3.2-9.3-8.1-14.4c-0.1-0.1-0.2-0.1-0.3,0
				c-0.1,0.1-0.1,0.2-0.1,0.3c5.3,11.6,4.9,24.4,0.9,34.3c0,0.1,0,0.2,0.1,0.3c0.1,0.1,0.2,0.1,0.3,0c5.2-2.6,8.3-4.2,12.8-10.4
				c-1.4-7.4-0.2-11,3.2-17.2c-3.9,9.9-1.8,23.9,8.2,29.6c0.1,0.1,0.2,0,0.3-0.1c0.1-0.1,0.1-0.2,0-0.3c-3.8-4-6.5-10.6-4.2-17.9
				c-1.5,10.4,7.6,19.1,17.8,19.1c9.6,0,16.2-7.5,15.6-14.9c-0.5-7.4-5.4-11-9.7-12.5c-0.1,0-0.2,0-0.3,0.1c-0.1,0.1-0.1,0.2,0,0.3
				c5.6,5.7,6.4,16.5-3.6,19.8c5.9-5.1,3.7-16.8-5.7-17.7c-0.1,0-0.2,0.1-0.3,0.2c0,0.1,0,0.2,0.1,0.3c2,1.3,3.7,3.8,3.7,6.6
				c0,4.7-3.4,6.5-5.7,6.5c-3.4,0-6.3-3.3-6.3-8.2c0-5.8,5.3-10.7,12-11.4c6.6-0.7,12.8,2.2,15.8,6.5c0.1,0.1,0.2,0.1,0.3,0.1
				c0.1-0.1,0.2-0.2,0.1-0.3c-3-11.7-16.8-16.9-26.9-9.5c6.6-7.5,17-7.6,25.7,0.1c0.1,0.1,0.2,0.1,0.3,0c0.1-0.1,0.1-0.2,0.1-0.3
				c-2.7-5.4-9.3-11.8-18.6-10.9c-8.6,0.9-13.5,9-14.5,15.7c-0.6-8.5,1.4-14.5,8.8-20.1c0.1-0.1,0.1-0.2,0.1-0.3
				c-0.1-0.1-0.2-0.2-0.3-0.1c-6.8,2-12.2,5.4-15,12.5c0-6.2,2.1-12.4,7.5-16.5c0.1-0.1,0.1-0.2,0.1-0.3c-0.1-0.1-0.2-0.2-0.3-0.1
				c-3.5,1-6.2,2.5-8.1,5.2c-1.3-11.1-6.5-17.7-12.5-17.7c-4.1,0-7.2,3-7.2,7.9C94.6-116.5,96.1-112.5,99.4-110.3z M0.2-18.7
				c3.2,3.9,9.5,5.4,16.4,4c-0.5,4.3,0.3,8.8,1.6,11.5C18.3-3.1,18.4-3,18.5-3c0.1,0,0.2-0.1,0.2-0.3c-0.4-8.8,4.6-15.8,13.4-18.9
				C25.2-17.5,23.2-8,26.5-3.2c0.1,0.1,0.2,0.1,0.3,0.1c0.1,0,0.2-0.2,0.2-0.3c-0.4-2.1,0.6-4.7,2.7-6.7c2.9-2.8,6.8-3.5,8.8-1.4
				c2,2,1.2,5.9-1.7,8.8c-1.1,1-2.3,1.8-3.4,2.2c-0.1,0-0.2,0.2-0.2,0.3c0,0.1,0.1,0.2,0.2,0.2c6.4,0.6,10.8-3.3,13.5-7.9
				c2.8-4.7,7.6-8.4,13.2-7.7c0.1,0,0.2-0.1,0.3-0.2c0-0.1,0-0.2-0.1-0.3c-2.8-1.7-5.9-2.4-9.9-1.1c5.8-4.9,14-7.7,21.8-5.2
				c0.1,0,0.2,0,0.3-0.1c0.1-0.1,0.1-0.2,0-0.3c-5.9-6.6-17.7-6.7-25.1-1.4c3-4.3,7.1-7.5,14.3-8.5c0.1,0,0.2-0.1,0.2-0.2
				c0-0.1-0.1-0.2-0.2-0.3c-8.3-3.1-16.6,0-23.4,8.2c3-6.4,7.9-11.5,14.8-14c0.1,0,0.2-0.2,0.2-0.3c0-0.1-0.1-0.2-0.2-0.2
				c-3.9-0.1-7.5,0.9-12.3,3.6c3.5-5.7,2.7-15.6-2.4-22.3c-0.1-0.1-0.2-0.1-0.3-0.1c-0.1,0-0.2,0.2-0.1,0.3
				c1.2,7.2-1.3,15.3-5.6,19.6c2.2-7.6,0-14.6-5.9-19.6c-0.1-0.1-0.2-0.1-0.3,0c-0.1,0-0.1,0.1-0.2,0.2c-1.2,9.4-11.8,19-20.6,19.8
				c-0.1,0-0.2,0.1-0.2,0.2c0,0.1,0.1,0.2,0.2,0.3c4.3,1,8.7,0.5,12.4-1c-2.7,2.9-5.9,5.1-9.6,6.2C8.1-32.2,8-32.1,8-32
				c0,0.1,0.1,0.2,0.2,0.2c4.5,0.3,8.9-1,12.7-3.5c-4.4,6.6-11,11.5-19.4,13.5c-0.1,0-0.2,0.1-0.2,0.3c0,0.1,0.1,0.2,0.2,0.2
				c11.9,1.3,21.7-3.3,28.2-11.9c-1.6,4.9-6.4,9.8-12.9,12.6C11-18,5-17.6,0.4-19.1c-0.1,0-0.2,0-0.3,0.1
				C0.1-18.9,0.1-18.7,0.2-18.7z M53.1-94.2c-4.8,10.5-4.5,18.7-0.6,29.1c0,0.1,0.2,0.2,0.3,0.2c0.1,0,0.2-0.1,0.2-0.3
				c-0.6-12.6,2.8-21.7,10.3-27.8c-8.2,9.9-4.4,29.6,8.8,29.6c9.6,0,17.5-8,19.5-17.5c0-0.1,0-0.2-0.2-0.3c-0.1,0-0.2,0-0.3,0.1
				c-2.8,4.8-7.4,7.9-12.5,7.9c-8.1,0-10.5-6.5-10.5-11c0-6.2,4.9-11.3,8.7-11.3c3.4,0,5,2.8,5,4.9c0,3.9-3,7.2-6.4,8.2
				c-0.1,0-0.2,0.2-0.2,0.3s0.1,0.2,0.2,0.2c4.1,0,7.6-1.9,9.6-5.6c0.3,2.9,0.3,4.7-0.6,7.7c0,0.1,0,0.2,0.1,0.3
				c0.1,0.1,0.2,0,0.3-0.1c7.4-9.4,3.8-25.6-2-32.4c5.5,4,10.4,12.6,10.3,24.4c0,0.1,0.1,0.2,0.2,0.2c0.1,0,0.2,0,0.3-0.2
				c4.1-10.3,1.9-29.2-9.3-39.9c2.9-0.4,5.9-0.3,9.1,0.7c0.1,0,0.2,0,0.3-0.1c0.1-0.1,0-0.2-0.1-0.3c-4.1-3.5-9.8-4.5-15.3-4.5
				c4.7,5.5,3.1,16.6-4.4,16.6c-5.3,0-7.8-8.3-3.6-12.8c0.1-0.1,0.1-0.2,0-0.3c-0.1-0.1-0.2-0.1-0.3-0.1c-4.8,1.7-9.9,5.8-9.9,11
				c0,5,4.8,9.4,11.8,9.1c-8.8,2.5-18.1-0.3-22.9-6.3c-0.1-0.1-0.2-0.1-0.3-0.1c-0.1,0.1-0.2,0.2-0.1,0.3
				c2.8,10.7,12,15.2,23.4,13.7c-9.3,3.8-23.2,0.5-29.4-7.3c-0.1-0.1-0.2-0.1-0.3-0.1c-0.1,0-0.2,0.2-0.1,0.3
				C43.8-101.1,47.3-96.2,53.1-94.2z"/>
		</g>
		<g>
			<path fill="#00427E" d="M135-184.6c0-0.1,0.1-0.2,0.2-0.2c12.9-0.1,24.8-3.3,34-11.5c-8,5.6-22.9,7.5-31.5,3.6
				c-0.1,0-0.2-0.2-0.1-0.3c0-0.1,0.1-0.2,0.3-0.2c10.7,0.3,19.3-3,26-9c-6.9-0.4-12.6-4.7-12.6-9.8c0-0.1,0.1-0.2,0.2-0.2
				c0.1,0,0.2,0,0.3,0.1c1.1,2.5,4.7,3.8,8.6,2.9c4.2-1,7-4.2,6.3-7.2c-0.5-2-2.4-3.4-5-3.8c-0.1,0-0.2-0.1-0.2-0.3
				c0-0.1,0.1-0.2,0.2-0.2c1.1-0.1,2.2-0.1,3.3,0c6.5,0.6,11.5,4.6,11.9,9.2c4.7-0.5,8.9-3.2,10.4-6.8c0-0.1,0.2-0.2,0.3-0.2
				c0.1,0,0.2,0.1,0.2,0.2c0.4,4.8-1.3,7.8-5,10.9c5.4-2.1,11.4-2.2,17.3,0.5c0.1,0,0.2,0.2,0.1,0.3c0,0.1-0.1,0.2-0.2,0.2
				c-4.9,0.2-8.4,1.8-11.7,5.1c18.3-5.1,33.1,6.2,28,23.1c0,0.1-0.1,0.2-0.3,0.2c-0.1,0-0.2-0.1-0.2-0.2
				c-0.9-9.7-7.7-16.1-17.9-17.1c5.4,2.1,11,7,11.6,15.5c0,0.1-0.1,0.2-0.2,0.3c-0.1,0-0.2,0-0.3-0.1c-2.8-6.2-8.3-9.3-14.2-9.8
				c6.3,2.6,10.4,8.6,11.6,16.4c0,0.1-0.1,0.2-0.2,0.3c-0.1,0-0.2,0-0.3-0.1c-3.9-7.6-12.2-12.8-22.4-8.8
				c-10.6,4.1-15.3,16.4-16.3,25c0,0.1-0.1,0.2-0.2,0.2c-0.1,0-0.2-0.1-0.3-0.2c-3.7-15.7,3.6-31.9,16.6-38.8
				c-7.1,2-13.4,6.3-17,13.4c-8.3,1-14,3.9-16.9,9.2c-0.1,0.1-0.2,0.2-0.3,0.1c-0.1,0-0.2-0.1-0.2-0.3c0.2-2.1,0.9-6.3,4.1-8.3
				c-7,0-12.5-0.9-17.8-3C135.1-184.3,135-184.5,135-184.6z M164.5-131.1c-0.1-0.1-0.2-0.1-0.3,0c-0.1,0.1-0.1,0.2,0,0.3
				c1.6,2.8,0.1,6.8-3.1,6.8c-5.7,0-8.5-10.8-7.6-20.6c2.2,5.8,4,8.1,7.3,10.8c0.1,0.1,0.2,0.1,0.3,0c0.1-0.1,0.1-0.2,0.1-0.3
				c-4.9-9.1-5.9-16.1-5.9-24.1c1.5,6,3.2,9.3,8.1,14.4c0.1,0.1,0.2,0.1,0.3,0c0.1-0.1,0.1-0.2,0.1-0.3c-5.3-11.6-4.9-24.4-0.9-34.3
				c0-0.1,0-0.2-0.1-0.3c-0.1-0.1-0.2-0.1-0.3,0c-5.2,2.6-8.3,4.2-12.8,10.4c1.4,7.4,0.2,11-3.2,17.2c3.9-9.9,1.8-23.9-8.2-29.6
				c-0.1-0.1-0.2,0-0.3,0.1c-0.1,0.1-0.1,0.2,0,0.3c3.8,4,6.5,10.6,4.2,17.9c1.5-10.4-7.6-19.1-17.8-19.1c-9.6,0-16.2,7.5-15.6,14.9
				c0.5,7.4,5.4,11,9.7,12.5c0.1,0,0.2,0,0.3-0.1c0.1-0.1,0-0.2,0-0.3c-5.6-5.7-6.4-16.5,3.6-19.8c-5.9,5.1-3.7,16.8,5.7,17.7
				c0.1,0,0.2-0.1,0.3-0.2c0-0.1,0-0.2-0.1-0.3c-2-1.3-3.7-3.8-3.7-6.6c0-4.7,3.4-6.5,5.7-6.5c3.4,0,6.3,3.3,6.3,8.2
				c0,5.8-5.3,10.7-12,11.4c-6.6,0.7-12.8-2.2-15.8-6.5c-0.1-0.1-0.2-0.1-0.3-0.1c-0.1,0.1-0.2,0.2-0.1,0.3
				c3,11.7,16.8,16.9,26.9,9.5c-6.6,7.5-17,7.6-25.7-0.1c-0.1-0.1-0.2-0.1-0.3,0c-0.1,0.1-0.1,0.2-0.1,0.3
				c2.7,5.4,9.3,11.8,18.6,10.9c8.6-0.9,13.5-9,14.5-15.7c0.6,8.5-1.4,14.5-8.8,20.1c-0.1,0.1-0.1,0.2-0.1,0.3
				c0.1,0.1,0.2,0.2,0.3,0.1c6.8-2,12.2-5.4,15-12.5c0,6.2-2.1,12.4-7.5,16.5c-0.1,0.1-0.1,0.2-0.1,0.3s0.2,0.2,0.3,0.1
				c3.5-1,6.2-2.5,8.1-5.2c1.3,11.1,6.5,17.7,12.5,17.7c4.1,0,7.2-3,7.2-7.9C169.3-124.9,167.8-128.9,164.5-131.1z M263.7-222.7
				c-3.2-3.9-9.5-5.4-16.4-4c0.5-4.3-0.3-8.8-1.6-11.5c-0.1-0.1-0.2-0.2-0.3-0.1c-0.1,0-0.2,0.1-0.2,0.3c0.4,8.8-4.6,15.8-13.4,18.9
				c6.9-4.8,8.9-14.2,5.6-19.1c-0.1-0.1-0.2-0.1-0.3-0.1c-0.1,0-0.2,0.2-0.2,0.3c0.4,2.1-0.6,4.7-2.7,6.7c-2.9,2.8-6.8,3.5-8.8,1.4
				c-2-2-1.2-5.9,1.7-8.8c1.1-1,2.3-1.8,3.4-2.2c0.1,0,0.2-0.2,0.2-0.3c0-0.1-0.1-0.2-0.2-0.2c-6.4-0.6-10.8,3.3-13.5,7.9
				c-2.8,4.7-7.6,8.4-13.2,7.7c-0.1,0-0.2,0.1-0.3,0.2c0,0.1,0,0.2,0.1,0.3c2.8,1.7,5.9,2.4,9.9,1.1c-5.8,4.9-14,7.7-21.8,5.2
				c-0.1,0-0.2,0-0.3,0.1c-0.1,0.1-0.1,0.2,0,0.3c5.9,6.6,17.7,6.7,25.1,1.4c-3,4.3-7.1,7.5-14.3,8.5c-0.1,0-0.2,0.1-0.2,0.2
				c0,0.1,0.1,0.2,0.2,0.3c8.3,3.1,16.6,0,23.4-8.2c-3,6.4-7.9,11.5-14.8,14c-0.1,0-0.2,0.2-0.2,0.3c0,0.1,0.1,0.2,0.2,0.2
				c3.9,0.1,7.5-0.9,12.3-3.6c-3.5,5.7-2.7,15.6,2.4,22.3c0.1,0.1,0.2,0.1,0.3,0.1c0.1,0,0.2-0.2,0.1-0.3
				c-1.2-7.2,1.3-15.3,5.6-19.6c-2.2,7.6,0,14.6,5.9,19.6c0.1,0.1,0.2,0.1,0.3,0c0.1,0,0.1-0.1,0.2-0.2c1.2-9.4,11.8-19,20.6-19.8
				c0.1,0,0.2-0.1,0.2-0.2c0-0.1-0.1-0.2-0.2-0.3c-4.3-1-8.7-0.5-12.4,1c2.7-2.9,5.9-5.1,9.6-6.2c0.1,0,0.2-0.2,0.2-0.3
				c0-0.1-0.1-0.2-0.2-0.2c-4.5-0.3-8.9,1-12.7,3.5c4.4-6.6,11-11.5,19.4-13.5c0.1,0,0.2-0.1,0.2-0.3c0-0.1-0.1-0.2-0.2-0.2
				c-11.9-1.3-21.7,3.3-28.2,11.9c1.6-4.9,6.4-9.8,12.9-12.6c5.8-2.5,11.9-2.9,16.4-1.5c0.1,0,0.2,0,0.3-0.1
				C263.8-222.5,263.8-222.6,263.7-222.7z M210.8-147.2c4.8-10.5,4.5-18.7,0.6-29.1c0-0.1-0.2-0.2-0.3-0.2c-0.1,0-0.2,0.1-0.2,0.3
				c0.6,12.6-2.8,21.7-10.3,27.8c8.2-9.9,4.4-29.6-8.8-29.6c-9.6,0-17.5,8-19.5,17.5c0,0.1,0,0.2,0.2,0.3c0.1,0,0.2,0,0.3-0.1
				c2.8-4.8,7.4-7.9,12.5-7.9c8.1,0,10.5,6.5,10.5,11c0,6.2-4.9,11.3-8.7,11.3c-3.4,0-5-2.8-5-4.9c0-3.9,3-7.2,6.4-8.2
				c0.1,0,0.2-0.2,0.2-0.3c0-0.1-0.1-0.2-0.2-0.2c-4.1,0-7.6,1.9-9.6,5.6c-0.3-2.9-0.3-4.7,0.6-7.7c0-0.1,0-0.2-0.1-0.3
				c-0.1-0.1-0.2,0-0.3,0.1c-7.4,9.4-3.8,25.6,2,32.4c-5.5-4-10.4-12.6-10.3-24.4c0-0.1-0.1-0.2-0.2-0.2c-0.1,0-0.2,0-0.3,0.2
				c-4.1,10.3-1.9,29.2,9.3,39.9c-2.9,0.4-5.9,0.3-9.1-0.7c-0.1,0-0.2,0-0.3,0.1c-0.1,0.1,0,0.2,0.1,0.3c4.1,3.5,9.8,4.5,15.3,4.5
				c-4.7-5.5-3.1-16.6,4.4-16.6c5.3,0,7.8,8.3,3.6,12.8c-0.1,0.1-0.1,0.2,0,0.3c0.1,0.1,0.2,0.1,0.3,0.1c4.8-1.7,9.9-5.8,9.9-11
				c0-5-4.8-9.4-11.8-9.1c8.8-2.5,18.1,0.3,22.9,6.3c0.1,0.1,0.2,0.1,0.3,0.1c0.1-0.1,0.2-0.2,0.1-0.3c-2.8-10.7-12-15.2-23.4-13.7
				c9.3-3.8,23.2-0.5,29.4,7.3c0.1,0.1,0.2,0.1,0.3,0.1c0.1-0.1,0.2-0.2,0.1-0.3C220.1-140.3,216.6-145.2,210.8-147.2z"/>
			<path opacity="0.4" fill="#9DDCF9" d="M237.2-166.5c0,0.1-0.1,0.2-0.2,0.2c-12.9,0.1-24.8,3.3-34,11.5c8-5.6,22.9-7.5,31.5-3.6
				c0.1,0.1,0.2,0.2,0.1,0.3c0,0.1-0.1,0.2-0.3,0.2c-10.7-0.3-19.3,3-26,9c6.9,0.4,12.6,4.7,12.6,9.8c0,0.1-0.1,0.2-0.2,0.2
				c-0.1,0-0.2,0-0.3-0.1c-1.1-2.5-4.7-3.8-8.6-2.9c-4.2,1-7,4.2-6.3,7.2c0.5,2,2.4,3.4,5,3.8c0.1,0,0.2,0.1,0.2,0.3
				c0,0.1-0.1,0.2-0.2,0.2c-1.1,0.1-2.2,0.1-3.3,0c-6.5-0.6-11.5-4.6-11.9-9.2c-4.7,0.5-8.9,3.2-10.4,6.8c0,0.1-0.2,0.2-0.3,0.2
				c-0.1,0-0.2-0.1-0.2-0.2c-0.4-4.8,1.3-7.8,5-10.9c-5.4,2.1-11.4,2.2-17.3-0.5c-0.1-0.1-0.2-0.2-0.1-0.3c0-0.1,0.1-0.2,0.2-0.2
				c4.9-0.2,8.4-1.8,11.7-5.1c-18.3,5.1-33.1-6.2-28-23.1c0-0.1,0.1-0.2,0.3-0.2s0.2,0.1,0.2,0.2c0.9,9.7,7.7,16.1,17.9,17.1
				c-5.4-2.1-11-7-11.6-15.5c0-0.1,0.1-0.2,0.2-0.3c0.1,0,0.2,0,0.3,0.1c2.8,6.2,8.3,9.3,14.2,9.8c-6.3-2.6-10.4-8.6-11.6-16.4
				c0-0.1,0.1-0.2,0.2-0.3c0.1,0,0.2,0,0.3,0.1c3.9,7.6,12.2,12.8,22.4,8.8c10.6-4.1,15.3-16.4,16.3-25c0-0.1,0.1-0.2,0.2-0.2
				c0.1,0,0.2,0.1,0.3,0.2c3.7,15.7-3.6,31.9-16.6,38.8c7.1-2,13.4-6.3,17-13.4c8.3-1,14-3.9,16.9-9.2c0.1-0.1,0.2-0.2,0.3-0.1
				c0.1,0,0.2,0.1,0.2,0.3c-0.2,2.1-0.9,6.3-4.1,8.3c7,0,12.5,0.9,17.8,3C237.2-166.7,237.2-166.6,237.2-166.5z M207.7-219.9
				c0.1,0.1,0.2,0.1,0.3,0c0.1-0.1,0.1-0.2,0-0.3c-1.6-2.8-0.1-6.8,3.1-6.8c5.7,0,8.5,10.8,7.6,20.6c-2.2-5.8-4-8.1-7.3-10.8
				c-0.1-0.1-0.2-0.1-0.3,0c-0.1,0.1-0.1,0.2-0.1,0.3c4.9,9.1,5.9,16.1,5.9,24.1c-1.5-6-3.2-9.3-8.1-14.4c-0.1-0.1-0.2-0.1-0.3,0
				c-0.1,0.1-0.1,0.2-0.1,0.3c5.3,11.6,4.9,24.4,0.9,34.3c0,0.1,0,0.2,0.1,0.3c0.1,0.1,0.2,0.1,0.3,0c5.2-2.6,8.3-4.2,12.8-10.4
				c-1.4-7.4-0.2-11,3.2-17.2c-3.9,9.9-1.8,23.9,8.2,29.6c0.1,0.1,0.2,0,0.3-0.1c0.1-0.1,0.1-0.2,0-0.3c-3.8-4-6.5-10.6-4.2-17.9
				c-1.5,10.4,7.6,19.1,17.8,19.1c9.6,0,16.2-7.5,15.6-14.9c-0.5-7.4-5.4-11-9.7-12.5c-0.1,0-0.2,0-0.3,0.1c-0.1,0.1-0.1,0.2,0,0.3
				c5.6,5.7,6.4,16.5-3.6,19.8c5.9-5.1,3.7-16.8-5.7-17.7c-0.1,0-0.2,0.1-0.3,0.2c0,0.1,0,0.2,0.1,0.3c2,1.3,3.7,3.8,3.7,6.6
				c0,4.7-3.4,6.5-5.7,6.5c-3.4,0-6.3-3.3-6.3-8.2c0-5.8,5.3-10.7,12-11.4c6.6-0.7,12.8,2.2,15.8,6.5c0.1,0.1,0.2,0.1,0.3,0.1
				c0.1-0.1,0.2-0.2,0.1-0.3c-3-11.7-16.8-16.9-26.9-9.5c6.6-7.5,17-7.6,25.7,0.1c0.1,0.1,0.2,0.1,0.3,0c0.1-0.1,0.1-0.2,0.1-0.3
				c-2.7-5.4-9.3-11.8-18.6-10.9c-8.6,0.9-13.5,9-14.5,15.7c-0.6-8.5,1.4-14.5,8.8-20.1c0.1-0.1,0.1-0.2,0.1-0.3s-0.2-0.2-0.3-0.1
				c-6.8,2-12.2,5.4-15,12.5c0-6.2,2.1-12.4,7.5-16.5c0.1-0.1,0.1-0.2,0.1-0.3c-0.1-0.1-0.2-0.2-0.3-0.1c-3.5,1-6.2,2.5-8.1,5.2
				c-1.3-11.1-6.5-17.7-12.5-17.7c-4.1,0-7.2,3-7.2,7.9C202.9-226.1,204.4-222.1,207.7-219.9z M108.5-128.3c3.2,3.9,9.5,5.4,16.4,4
				c-0.5,4.3,0.3,8.8,1.6,11.5c0.1,0.1,0.2,0.2,0.3,0.1c0.1,0,0.2-0.1,0.2-0.3c-0.4-8.8,4.6-15.8,13.4-18.9
				c-6.9,4.8-8.9,14.2-5.6,19.1c0.1,0.1,0.2,0.1,0.3,0.1c0.1,0,0.2-0.2,0.2-0.3c-0.4-2.1,0.6-4.7,2.7-6.7c2.9-2.8,6.8-3.5,8.8-1.4
				c2,2,1.2,5.9-1.7,8.8c-1.1,1-2.3,1.8-3.4,2.2c-0.1,0-0.2,0.2-0.2,0.3c0,0.1,0.1,0.2,0.2,0.2c6.4,0.6,10.8-3.3,13.5-7.9
				c2.8-4.7,7.6-8.4,13.2-7.7c0.1,0,0.2-0.1,0.3-0.2c0-0.1,0-0.2-0.1-0.3c-2.8-1.7-5.9-2.4-9.9-1.1c5.8-4.9,14-7.7,21.8-5.2
				c0.1,0,0.2,0,0.3-0.1c0.1-0.1,0.1-0.2,0-0.3c-5.9-6.6-17.7-6.7-25.1-1.4c3-4.3,7.1-7.5,14.3-8.5c0.1,0,0.2-0.1,0.2-0.2
				c0-0.1-0.1-0.2-0.2-0.3c-8.3-3.1-16.6,0-23.4,8.2c3-6.4,7.9-11.5,14.8-14c0.1,0,0.2-0.2,0.2-0.3c0-0.1-0.1-0.2-0.2-0.2
				c-3.9-0.1-7.5,0.9-12.3,3.6c3.5-5.7,2.7-15.6-2.4-22.3c-0.1-0.1-0.2-0.1-0.3-0.1c-0.1,0-0.2,0.2-0.1,0.3
				c1.2,7.2-1.3,15.3-5.6,19.6c2.2-7.6,0-14.6-5.9-19.6c-0.1-0.1-0.2-0.1-0.3,0c-0.1,0-0.1,0.1-0.2,0.2c-1.2,9.4-11.8,19-20.6,19.8
				c-0.1,0-0.2,0.1-0.2,0.2c0,0.1,0.1,0.2,0.2,0.3c4.3,1,8.7,0.5,12.4-1c-2.7,2.9-5.9,5.1-9.6,6.2c-0.1,0-0.2,0.2-0.2,0.3
				c0,0.1,0.1,0.2,0.2,0.2c4.5,0.3,8.9-1,12.7-3.5c-4.4,6.6-11,11.5-19.4,13.5c-0.1,0-0.2,0.1-0.2,0.3c0,0.1,0.1,0.2,0.2,0.2
				c11.9,1.3,21.7-3.3,28.2-11.9c-1.6,4.9-6.4,9.8-12.9,12.6c-5.8,2.5-11.8,2.9-16.4,1.5c-0.1,0-0.2,0-0.3,0.1
				C108.4-128.5,108.4-128.4,108.5-128.3z M161.4-203.9c-4.8,10.5-4.5,18.7-0.6,29.1c0,0.1,0.2,0.2,0.3,0.2c0.1,0,0.2-0.1,0.2-0.3
				c-0.6-12.6,2.8-21.7,10.3-27.8c-8.2,9.9-4.4,29.6,8.8,29.6c9.6,0,17.5-8,19.5-17.5c0-0.1,0-0.2-0.2-0.3c-0.1,0-0.2,0-0.3,0.1
				c-2.8,4.8-7.4,7.9-12.5,7.9c-8.1,0-10.5-6.5-10.5-11c0-6.2,4.9-11.3,8.7-11.3c3.4,0,5,2.8,5,4.9c0,3.9-3,7.2-6.4,8.2
				c-0.1,0-0.2,0.2-0.2,0.3c0,0.1,0.1,0.2,0.2,0.2c4.1,0,7.6-1.9,9.6-5.6c0.3,2.9,0.3,4.7-0.6,7.7c0,0.1,0,0.2,0.1,0.3
				c0.1,0.1,0.2,0,0.3-0.1c7.4-9.4,3.8-25.6-2-32.4c5.5,4,10.4,12.6,10.3,24.4c0,0.1,0.1,0.2,0.2,0.2c0.1,0,0.2,0,0.3-0.2
				c4.1-10.3,1.9-29.2-9.3-39.9c2.9-0.4,5.9-0.3,9.1,0.7c0.1,0,0.2,0,0.3-0.1c0.1-0.1,0-0.2-0.1-0.3c-4.1-3.5-9.8-4.5-15.3-4.5
				c4.7,5.5,3.1,16.6-4.4,16.6c-5.3,0-7.8-8.3-3.6-12.8c0.1-0.1,0.1-0.2,0-0.3c-0.1-0.1-0.2-0.1-0.3-0.1c-4.8,1.7-9.9,5.8-9.9,11
				c0,5,4.8,9.4,11.8,9.1c-8.8,2.5-18.1-0.3-22.9-6.3c-0.1-0.1-0.2-0.1-0.3-0.1c-0.1,0.1-0.2,0.2-0.1,0.3
				c2.8,10.7,12,15.2,23.4,13.7c-9.3,3.8-23.2,0.5-29.4-7.3c-0.1-0.1-0.2-0.1-0.3-0.1c-0.1,0-0.2,0.2-0.1,0.3
				C152.2-210.8,155.7-205.8,161.4-203.9z"/>
		</g>
		<g>
			<path fill="#00427E" d="M26.7-184.6c0-0.1,0.1-0.2,0.2-0.2c12.9-0.1,24.8-3.3,34-11.5c-8,5.6-22.9,7.5-31.5,3.6
				c-0.1,0-0.2-0.2-0.1-0.3c0-0.1,0.1-0.2,0.3-0.2c10.7,0.3,19.3-3,26-9c-6.9-0.4-12.6-4.7-12.6-9.8c0-0.1,0.1-0.2,0.2-0.2
				c0.1,0,0.2,0,0.3,0.1c1.1,2.5,4.7,3.8,8.6,2.9c4.2-1,7-4.2,6.3-7.2c-0.5-2-2.4-3.4-5-3.8c-0.1,0-0.2-0.1-0.2-0.3
				c0-0.1,0.1-0.2,0.2-0.2c1.1-0.1,2.2-0.1,3.3,0c6.5,0.6,11.5,4.6,11.9,9.2c4.7-0.5,8.9-3.2,10.4-6.8c0-0.1,0.2-0.2,0.3-0.2
				c0.1,0,0.2,0.1,0.2,0.2c0.4,4.8-1.3,7.8-5,10.9c5.4-2.1,11.4-2.2,17.3,0.5c0.1,0,0.2,0.2,0.1,0.3c0,0.1-0.1,0.2-0.2,0.2
				c-4.9,0.2-8.4,1.8-11.7,5.1c18.3-5.1,33.1,6.2,28,23.1c0,0.1-0.1,0.2-0.3,0.2c-0.1,0-0.2-0.1-0.2-0.2
				c-0.9-9.7-7.7-16.1-17.9-17.1c5.4,2.1,11,7,11.6,15.5c0,0.1-0.1,0.2-0.2,0.3c-0.1,0-0.2,0-0.3-0.1c-2.8-6.2-8.3-9.3-14.2-9.8
				c6.3,2.6,10.4,8.6,11.6,16.4c0,0.1-0.1,0.2-0.2,0.3c-0.1,0-0.2,0-0.3-0.1c-3.9-7.6-12.2-12.8-22.4-8.8
				c-10.6,4.1-15.3,16.4-16.3,25c0,0.1-0.1,0.2-0.2,0.2c-0.1,0-0.2-0.1-0.3-0.2c-3.7-15.7,3.6-31.9,16.6-38.8
				c-7.1,2-13.4,6.3-17,13.4c-8.3,1-14,3.9-16.9,9.2c-0.1,0.1-0.2,0.2-0.3,0.1c-0.1,0-0.2-0.1-0.2-0.3c0.2-2.1,0.9-6.3,4.1-8.3
				c-7,0-12.5-0.9-17.8-3C26.7-184.3,26.7-184.5,26.7-184.6z M56.2-131.1c-0.1-0.1-0.2-0.1-0.3,0c-0.1,0.1-0.1,0.2,0,0.3
				c1.6,2.8,0.1,6.8-3.1,6.8c-5.7,0-8.5-10.8-7.6-20.6c2.2,5.8,4,8.1,7.3,10.8c0.1,0.1,0.2,0.1,0.3,0c0.1-0.1,0.1-0.2,0.1-0.3
				c-4.9-9.1-5.9-16.1-5.9-24.1c1.5,6,3.2,9.3,8.1,14.4c0.1,0.1,0.2,0.1,0.3,0c0.1-0.1,0.1-0.2,0.1-0.3c-5.3-11.6-4.9-24.4-0.9-34.3
				c0-0.1,0-0.2-0.1-0.3c-0.1-0.1-0.2-0.1-0.3,0c-5.2,2.6-8.3,4.2-12.8,10.4c1.4,7.4,0.2,11-3.2,17.2c3.9-9.9,1.8-23.9-8.2-29.6
				c-0.1-0.1-0.2,0-0.3,0.1c-0.1,0.1-0.1,0.2,0,0.3c3.8,4,6.5,10.6,4.2,17.9c1.5-10.4-7.6-19.1-17.8-19.1c-9.6,0-16.2,7.5-15.6,14.9
				c0.5,7.4,5.4,11,9.7,12.5c0.1,0,0.2,0,0.3-0.1c0.1-0.1,0-0.2,0-0.3c-5.6-5.7-6.4-16.5,3.6-19.8c-5.9,5.1-3.7,16.8,5.7,17.7
				c0.1,0,0.2-0.1,0.3-0.2c0-0.1,0-0.2-0.1-0.3c-2-1.3-3.7-3.8-3.7-6.6c0-4.7,3.4-6.5,5.7-6.5c3.4,0,6.3,3.3,6.3,8.2
				c0,5.8-5.3,10.7-12,11.4c-6.6,0.7-12.8-2.2-15.7-6.5c-0.1-0.1-0.2-0.1-0.3-0.1C0-156.9,0-156.8,0-156.7
				c3,11.7,16.8,16.9,26.9,9.5c-6.6,7.5-17,7.6-25.7-0.1c-0.1-0.1-0.2-0.1-0.3,0c-0.1,0.1-0.1,0.2-0.1,0.3
				c2.7,5.4,9.3,11.8,18.6,10.9c8.6-0.9,13.5-9,14.5-15.7c0.6,8.5-1.4,14.5-8.8,20.1c-0.1,0.1-0.1,0.2-0.1,0.3
				c0.1,0.1,0.2,0.2,0.3,0.1c6.8-2,12.2-5.4,15-12.5c0,6.2-2.1,12.4-7.5,16.5c-0.1,0.1-0.1,0.2-0.1,0.3c0.1,0.1,0.2,0.2,0.3,0.1
				c3.5-1,6.2-2.5,8.1-5.2c1.3,11.1,6.5,17.7,12.5,17.7c4.1,0,7.2-3,7.2-7.9C61-124.9,59.5-128.9,56.2-131.1z M155.4-222.7
				c-3.2-3.9-9.5-5.4-16.4-4c0.5-4.3-0.3-8.8-1.6-11.5c-0.1-0.1-0.2-0.2-0.3-0.1c-0.1,0-0.2,0.1-0.2,0.3c0.4,8.8-4.6,15.8-13.4,18.9
				c6.9-4.8,8.9-14.2,5.6-19.1c-0.1-0.1-0.2-0.1-0.3-0.1c-0.1,0-0.2,0.2-0.2,0.3c0.4,2.1-0.6,4.7-2.7,6.7c-2.9,2.8-6.8,3.5-8.8,1.4
				c-2-2-1.2-5.9,1.7-8.8c1.1-1,2.3-1.8,3.4-2.2c0.1,0,0.2-0.2,0.2-0.3c0-0.1-0.1-0.2-0.2-0.2c-6.4-0.6-10.8,3.3-13.5,7.9
				c-2.8,4.7-7.6,8.4-13.2,7.7c-0.1,0-0.2,0.1-0.3,0.2c0,0.1,0,0.2,0.1,0.3c2.8,1.7,5.9,2.4,9.9,1.1c-5.8,4.9-14,7.7-21.8,5.2
				c-0.1,0-0.2,0-0.3,0.1c-0.1,0.1-0.1,0.2,0,0.3c5.9,6.6,17.7,6.7,25.1,1.4c-3,4.3-7.1,7.5-14.3,8.5c-0.1,0-0.2,0.1-0.2,0.2
				c0,0.1,0.1,0.2,0.2,0.3c8.3,3.1,16.6,0,23.4-8.2c-3,6.4-7.9,11.5-14.8,14c-0.1,0-0.2,0.2-0.2,0.3c0,0.1,0.1,0.2,0.2,0.2
				c3.9,0.1,7.5-0.9,12.3-3.6c-3.5,5.7-2.7,15.6,2.4,22.3c0.1,0.1,0.2,0.1,0.3,0.1c0.1,0,0.2-0.2,0.1-0.3
				c-1.2-7.2,1.3-15.3,5.6-19.6c-2.2,7.6,0,14.6,5.9,19.6c0.1,0.1,0.2,0.1,0.3,0c0.1,0,0.1-0.1,0.2-0.2c1.2-9.4,11.8-19,20.6-19.8
				c0.1,0,0.2-0.1,0.2-0.2c0-0.1-0.1-0.2-0.2-0.3c-4.3-1-8.7-0.5-12.4,1c2.7-2.9,5.9-5.1,9.6-6.2c0.1,0,0.2-0.2,0.2-0.3
				c0-0.1-0.1-0.2-0.2-0.2c-4.5-0.3-8.9,1-12.7,3.5c4.4-6.6,11-11.5,19.4-13.5c0.1,0,0.2-0.1,0.2-0.3c0-0.1-0.1-0.2-0.2-0.2
				c-11.9-1.3-21.7,3.3-28.2,11.9c1.6-4.9,6.4-9.8,12.9-12.6c5.8-2.5,11.8-2.9,16.4-1.5c0.1,0,0.2,0,0.3-0.1
				C155.5-222.5,155.5-222.6,155.4-222.7z M102.5-147.2c4.8-10.5,4.5-18.7,0.6-29.1c0-0.1-0.2-0.2-0.3-0.2c-0.1,0-0.2,0.1-0.2,0.3
				c0.6,12.6-2.8,21.7-10.3,27.8c8.2-9.9,4.4-29.6-8.8-29.6c-9.6,0-17.5,8-19.5,17.5c0,0.1,0,0.2,0.2,0.3c0.1,0,0.2,0,0.3-0.1
				c2.8-4.8,7.4-7.9,12.5-7.9c8.1,0,10.5,6.5,10.5,11c0,6.2-4.9,11.3-8.7,11.3c-3.4,0-5-2.8-5-4.9c0-3.9,3-7.2,6.4-8.2
				c0.1,0,0.2-0.2,0.2-0.3c0-0.1-0.1-0.2-0.2-0.2c-4.1,0-7.6,1.9-9.6,5.6c-0.3-2.9-0.3-4.7,0.6-7.7c0-0.1,0-0.2-0.1-0.3
				c-0.1-0.1-0.2,0-0.3,0.1c-7.4,9.4-3.8,25.6,2,32.4c-5.5-4-10.4-12.6-10.3-24.4c0-0.1-0.1-0.2-0.2-0.2c-0.1,0-0.2,0-0.3,0.2
				c-4.1,10.3-1.9,29.2,9.3,39.9c-2.9,0.4-5.9,0.3-9.1-0.7c-0.1,0-0.2,0-0.3,0.1c-0.1,0.1,0,0.2,0.1,0.3c4.1,3.5,9.8,4.5,15.3,4.5
				c-4.7-5.5-3.1-16.6,4.4-16.6c5.3,0,7.8,8.3,3.6,12.8c-0.1,0.1-0.1,0.2,0,0.3c0.1,0.1,0.2,0.1,0.3,0.1c4.8-1.7,9.9-5.8,9.9-11
				c0-5-4.8-9.4-11.8-9.1c8.8-2.5,18.1,0.3,22.9,6.3c0.1,0.1,0.2,0.1,0.3,0.1c0.1-0.1,0.2-0.2,0.1-0.3c-2.8-10.7-12-15.2-23.4-13.7
				c9.3-3.8,23.2-0.5,29.4,7.3c0.1,0.1,0.2,0.1,0.3,0.1c0.1-0.1,0.2-0.2,0.1-0.3C111.8-140.3,108.3-145.2,102.5-147.2z"/>
			<path opacity="0.4" fill="#9DDCF9" d="M128.9-166.5c0,0.1-0.1,0.2-0.2,0.2c-12.9,0.1-24.8,3.3-34,11.5c8-5.6,22.9-7.5,31.5-3.6
				c0.1,0.1,0.2,0.2,0.1,0.3c0,0.1-0.1,0.2-0.3,0.2c-10.7-0.3-19.3,3-26,9c6.9,0.4,12.6,4.7,12.6,9.8c0,0.1-0.1,0.2-0.2,0.2
				c-0.1,0-0.2,0-0.3-0.1c-1.1-2.5-4.7-3.8-8.6-2.9c-4.2,1-7,4.2-6.3,7.2c0.5,2,2.4,3.4,5,3.8c0.1,0,0.2,0.1,0.2,0.3
				c0,0.1-0.1,0.2-0.2,0.2c-1.1,0.1-2.2,0.1-3.3,0c-6.5-0.6-11.5-4.6-11.9-9.2c-4.7,0.5-8.9,3.2-10.4,6.8c0,0.1-0.2,0.2-0.3,0.2
				c-0.1,0-0.2-0.1-0.2-0.2c-0.4-4.8,1.3-7.8,5-10.9c-5.4,2.1-11.4,2.2-17.3-0.5c-0.1-0.1-0.2-0.2-0.1-0.3c0-0.1,0.1-0.2,0.2-0.2
				c4.9-0.2,8.4-1.8,11.7-5.1c-18.3,5.1-33.1-6.2-28-23.1c0-0.1,0.1-0.2,0.3-0.2c0.1,0,0.2,0.1,0.2,0.2c0.9,9.7,7.7,16.1,17.9,17.1
				c-5.4-2.1-11-7-11.6-15.5c0-0.1,0.1-0.2,0.2-0.3c0.1,0,0.2,0,0.3,0.1c2.8,6.2,8.3,9.3,14.2,9.8c-6.3-2.6-10.4-8.6-11.6-16.4
				c0-0.1,0.1-0.2,0.2-0.3c0.1,0,0.2,0,0.3,0.1c3.9,7.6,12.2,12.8,22.4,8.8c10.6-4.1,15.3-16.4,16.3-25c0-0.1,0.1-0.2,0.2-0.2
				c0.1,0,0.2,0.1,0.3,0.2c3.7,15.7-3.6,31.9-16.6,38.8c7.1-2,13.4-6.3,17-13.4c8.3-1,14-3.9,16.9-9.2c0.1-0.1,0.2-0.2,0.3-0.1
				c0.1,0,0.2,0.1,0.2,0.3c-0.2,2.1-0.9,6.3-4.1,8.3c7,0,12.5,0.9,17.8,3C128.8-166.7,128.9-166.6,128.9-166.5z M99.4-219.9
				c0.1,0.1,0.2,0.1,0.3,0c0.1-0.1,0.1-0.2,0-0.3c-1.6-2.8-0.1-6.8,3.1-6.8c5.7,0,8.5,10.8,7.6,20.6c-2.2-5.8-4-8.1-7.3-10.8
				c-0.1-0.1-0.2-0.1-0.3,0c-0.1,0.1-0.1,0.2-0.1,0.3c4.9,9.1,5.9,16.1,5.9,24.1c-1.5-6-3.2-9.3-8.1-14.4c-0.1-0.1-0.2-0.1-0.3,0
				c-0.1,0.1-0.1,0.2-0.1,0.3c5.3,11.6,4.9,24.4,0.9,34.3c0,0.1,0,0.2,0.1,0.3c0.1,0.1,0.2,0.1,0.3,0c5.2-2.6,8.3-4.2,12.8-10.4
				c-1.4-7.4-0.2-11,3.2-17.2c-3.9,9.9-1.8,23.9,8.2,29.6c0.1,0.1,0.2,0,0.3-0.1c0.1-0.1,0.1-0.2,0-0.3c-3.8-4-6.5-10.6-4.2-17.9
				c-1.5,10.4,7.6,19.1,17.8,19.1c9.6,0,16.2-7.5,15.6-14.9c-0.5-7.4-5.4-11-9.7-12.5c-0.1,0-0.2,0-0.3,0.1c-0.1,0.1-0.1,0.2,0,0.3
				c5.6,5.7,6.4,16.5-3.6,19.8c5.9-5.1,3.7-16.8-5.7-17.7c-0.1,0-0.2,0.1-0.3,0.2c0,0.1,0,0.2,0.1,0.3c2,1.3,3.7,3.8,3.7,6.6
				c0,4.7-3.4,6.5-5.7,6.5c-3.4,0-6.3-3.3-6.3-8.2c0-5.8,5.3-10.7,12-11.4c6.6-0.7,12.8,2.2,15.8,6.5c0.1,0.1,0.2,0.1,0.3,0.1
				c0.1-0.1,0.2-0.2,0.1-0.3c-3-11.7-16.8-16.9-26.9-9.5c6.6-7.5,17-7.6,25.7,0.1c0.1,0.1,0.2,0.1,0.3,0c0.1-0.1,0.1-0.2,0.1-0.3
				c-2.7-5.4-9.3-11.8-18.6-10.9c-8.6,0.9-13.5,9-14.5,15.7c-0.6-8.5,1.4-14.5,8.8-20.1c0.1-0.1,0.1-0.2,0.1-0.3
				c-0.1-0.1-0.2-0.2-0.3-0.1c-6.8,2-12.2,5.4-15,12.5c0-6.2,2.1-12.4,7.5-16.5c0.1-0.1,0.1-0.2,0.1-0.3c-0.1-0.1-0.2-0.2-0.3-0.1
				c-3.5,1-6.2,2.5-8.1,5.2c-1.3-11.1-6.5-17.7-12.5-17.7c-4.1,0-7.2,3-7.2,7.9C94.6-226.1,96.1-222.1,99.4-219.9z M0.2-128.3
				c3.2,3.9,9.5,5.4,16.4,4c-0.5,4.3,0.3,8.8,1.6,11.5c0.1,0.1,0.2,0.2,0.3,0.1c0.1,0,0.2-0.1,0.2-0.3c-0.4-8.8,4.6-15.8,13.4-18.9
				c-6.9,4.8-8.9,14.2-5.6,19.1c0.1,0.1,0.2,0.1,0.3,0.1c0.1,0,0.2-0.2,0.2-0.3c-0.4-2.1,0.6-4.7,2.7-6.7c2.9-2.8,6.8-3.5,8.8-1.4
				c2,2,1.2,5.9-1.7,8.8c-1.1,1-2.3,1.8-3.4,2.2c-0.1,0-0.2,0.2-0.2,0.3c0,0.1,0.1,0.2,0.2,0.2c6.4,0.6,10.8-3.3,13.5-7.9
				c2.8-4.7,7.6-8.4,13.2-7.7c0.1,0,0.2-0.1,0.3-0.2c0-0.1,0-0.2-0.1-0.3c-2.8-1.7-5.9-2.4-9.9-1.1c5.8-4.9,14-7.7,21.8-5.2
				c0.1,0,0.2,0,0.3-0.1c0.1-0.1,0.1-0.2,0-0.3c-5.9-6.6-17.7-6.7-25.1-1.4c3-4.3,7.1-7.5,14.3-8.5c0.1,0,0.2-0.1,0.2-0.2
				c0-0.1-0.1-0.2-0.2-0.3c-8.3-3.1-16.6,0-23.4,8.2c3-6.4,7.9-11.5,14.8-14c0.1,0,0.2-0.2,0.2-0.3c0-0.1-0.1-0.2-0.2-0.2
				c-3.9-0.1-7.5,0.9-12.3,3.6c3.5-5.7,2.7-15.6-2.4-22.3c-0.1-0.1-0.2-0.1-0.3-0.1c-0.1,0-0.2,0.2-0.1,0.3
				c1.2,7.2-1.3,15.3-5.6,19.6c2.2-7.6,0-14.6-5.9-19.6c-0.1-0.1-0.2-0.1-0.3,0c-0.1,0-0.1,0.1-0.2,0.2c-1.2,9.4-11.8,19-20.6,19.8
				c-0.1,0-0.2,0.1-0.2,0.2c0,0.1,0.1,0.2,0.2,0.3c4.3,1,8.7,0.5,12.4-1c-2.7,2.9-5.9,5.1-9.6,6.2c-0.1,0-0.2,0.2-0.2,0.3
				c0,0.1,0.1,0.2,0.2,0.2c4.5,0.3,8.9-1,12.7-3.5c-4.4,6.6-11,11.5-19.4,13.5c-0.1,0-0.2,0.1-0.2,0.3c0,0.1,0.1,0.2,0.2,0.2
				c11.9,1.3,21.7-3.3,28.2-11.9c-1.6,4.9-6.4,9.8-12.9,12.6c-5.8,2.5-11.8,2.9-16.4,1.5c-0.1,0-0.2,0-0.3,0.1
				C0.1-128.5,0.1-128.4,0.2-128.3z M53.1-203.9c-4.8,10.5-4.5,18.7-0.6,29.1c0,0.1,0.2,0.2,0.3,0.2c0.1,0,0.2-0.1,0.2-0.3
				c-0.6-12.6,2.8-21.7,10.3-27.8c-8.2,9.9-4.4,29.6,8.8,29.6c9.6,0,17.5-8,19.5-17.5c0-0.1,0-0.2-0.2-0.3c-0.1,0-0.2,0-0.3,0.1
				c-2.8,4.8-7.4,7.9-12.5,7.9c-8.1,0-10.5-6.5-10.5-11c0-6.2,4.9-11.3,8.7-11.3c3.4,0,5,2.8,5,4.9c0,3.9-3,7.2-6.4,8.2
				c-0.1,0-0.2,0.2-0.2,0.3s0.1,0.2,0.2,0.2c4.1,0,7.6-1.9,9.6-5.6c0.3,2.9,0.3,4.7-0.6,7.7c0,0.1,0,0.2,0.1,0.3
				c0.1,0.1,0.2,0,0.3-0.1c7.4-9.4,3.8-25.6-2-32.4c5.5,4,10.4,12.6,10.3,24.4c0,0.1,0.1,0.2,0.2,0.2c0.1,0,0.2,0,0.3-0.2
				c4.1-10.3,1.9-29.2-9.3-39.9c2.9-0.4,5.9-0.3,9.1,0.7c0.1,0,0.2,0,0.3-0.1c0.1-0.1,0-0.2-0.1-0.3c-4.1-3.5-9.8-4.5-15.3-4.5
				c4.7,5.5,3.1,16.6-4.4,16.6c-5.3,0-7.8-8.3-3.6-12.8c0.1-0.1,0.1-0.2,0-0.3c-0.1-0.1-0.2-0.1-0.3-0.1c-4.8,1.7-9.9,5.8-9.9,11
				c0,5,4.8,9.4,11.8,9.1c-8.8,2.5-18.1-0.3-22.9-6.3c-0.1-0.1-0.2-0.1-0.3-0.1c-0.1,0.1-0.2,0.2-0.1,0.3
				c2.8,10.7,12,15.2,23.4,13.7c-9.3,3.8-23.2,0.5-29.4-7.3c-0.1-0.1-0.2-0.1-0.3-0.1c-0.1,0-0.2,0.2-0.1,0.3
				C43.8-210.8,47.3-205.8,53.1-203.9z"/>
		</g>
	</g>
</pattern>
<path fill="#FFFFFF" stroke="#000000" stroke-miterlimit="10" d="M213.8,185.8H95.6c-6.6,0-12-5.4-12-12V95.9c0-6.6,5.4-12,12-12
	h118.2c6.6,0,12,5.4,12,12v77.9C225.8,180.4,220.4,185.8,213.8,185.8z"/>
<path fill="url(#Jive)" stroke="#000000" stroke-miterlimit="10" d="M203.8,176.4h-98.1c-6.6,0-12-5.4-12-12v-59c0-6.6,5.4-12,12-12
	h98.1c6.6,0,12,5.4,12,12v59C215.8,171,210.4,176.4,203.8,176.4z"/>
<path fill="#FFFFFF" stroke="#000000" stroke-miterlimit="10" d="M220.9,203.4H88.6c-2.7,0-5-2.2-5-5l0,0c0-2.7,2.2-5,5-5h132.2
	c2.7,0,5,2.2,5,5l0,0C225.8,201.1,223.6,203.4,220.9,203.4z"/>
<path stroke="#000000" stroke-miterlimit="10" d="M163.3,201h-17.1c-1.4,0-2.6-1.2-2.6-2.6l0,0c0-1.4,1.2-2.6,2.6-2.6h17.1
	c1.4,0,2.6,1.2,2.6,2.6l0,0C165.9,199.8,164.7,201,163.3,201z"/>
</svg>
